<svg xmlns="http://www.w3.org/2000/svg" xmlns:xlink="http://www.w3.org/1999/xlink" viewBox="0 0 289.24 286.55">
  <defs>
    <linearGradient id="agl" y1="143.28" x2="289.24" y2="143.28" gradientUnits="userSpaceOnUse">
      <stop offset="0" stop-color="#643232"/><stop offset="1" stop-color="#dd3e5e"/>
    </linearGradient>
  </defs>
  <path fill="url(#agl)" d="M289.17,239.61c-.05,24.53-22.76,46.68-47.81,46.74-49.64.12-99.28,0-148.92,0-2.76,0-5.63.46-8.24-.16-2.2-.52-5-1.88-5.85-3.67-.74-1.46.25-4.72,1.59-6.15,7.53-8.05,15.38-15.81,23.16-23.63,8.85-8.89,17.86-17.62,26.56-26.66A20.76,20.76,0,0,1,146,219.21c25.72.19,51.44.19,77.15.17V166.05a34,34,0,0,1-.28-4.69c.11-19.15-.49-38.33-.65-57.49,0-5.61-1.8-10-7.21-12.31-5.25-2.2-9.31,0-13,3.73s-7.45,7.37-11.27,11a12.54,12.54,0,0,0-4.22,9.86c.17,20,.09,40,.1,60,0,7.55-1.37,8.94-8.9,8.93-18.48,0-37,.07-55.43-.1a13.13,13.13,0,0,0-10.16,4.4Q84.1,217.69,55.8,245.83c-4.44,4.45-9.39,8.12-15.56,9.79C20.65,260.92.3,245.34.16,224.56,0,189.82.06,155.06.06,120.31c0-22.88.35-45.78,0-68.67C-.37,29.91,15.69,5.78,41.91.63A39.9,39.9,0,0,1,49.73.25Q126.88.14,204,.1c1.1,0,2.39-.31,3.27.15,1.95,1,4.49,2.1,5.26,3.83.63,1.44-.34,4.41-1.6,5.75-6.91,7.31-14.12,14.34-21.25,21.44q-16,15.89-32,31.74a15.69,15.69,0,0,1-11.88,4.65q-39.1-.14-78.21-.1v56.36a41.85,41.85,0,0,1,.15,4.65c-.11,6-.14,12-.14,18l0,6.64c0,10,.15,20,.1,30,0,5.21,1.55,9.35,6.42,11.45s8.81.09,12.31-3.37c4.69-4.67,9.76-9,14.07-14a14.17,14.17,0,0,0,3.07-8.49c.16-19.16-.09-38.33-.19-57.49,0-7.22,1.39-8.69,8.73-8.72,18.19,0,36.39-.15,54.6-.06a12.94,12.94,0,0,0,9.92-4.1c17.79-18.09,35.71-36,53.47-54.14,9-9.2,19-15.44,32.63-13.09,14,2.43,26.38,16.73,26.39,31Q289.26,150.89,289.17,239.61Z"/>
</svg>
